<?xml version="1.0"?>
<svg xmlns="http://www.w3.org/2000/svg" viewBox="0 0 24 24" enable-background="new 0 0 24 24">
    <path d="M 17.03125 2.03125 L 16.5 2.6875 L 14.6875 5 L 13 5 L 13 6 L 9 6 L 9 8 L 13 8 L 13 9 L 14.6875 9 L 16.5 11.3125 L 17.03125 11.96875 L 17.75 11.59375 L 21.96875 9.375 L 21.03125 7.625 L 17.5625 9.4375 L 15.6875 7 L 17.5625 4.5625 L 21.03125 6.375 L 21.96875 4.625 L 17.75 2.40625 L 17.03125 2.03125 z M 5 4 C 3.3 4 2 5.3 2 7 C 2 8.275 2.7296875 9.3359375 3.8125 9.78125 L 6.1875 17 L 10.40625 17 L 7.625 8.46875 C 7.8618929 8.0360665 8 7.5441766 8 7 C 8 5.3 6.7 4 5 4 z M 5 6 C 5.6 6 6 6.4 6 7 C 6 7.6 5.6 8 5 8 C 4.4 8 4 7.6 4 7 C 4 6.4 4.4 6 5 6 z M 4 18 C 2.9 18 2 18.9 2 20 L 2 22 L 19 22 L 19 20 C 19 18.9 18.1 18 17 18 L 4 18 z"/>
</svg>
